<svg width="48" height="49" viewBox="0 0 48 49" fill="none" xmlns="http://www.w3.org/2000/svg">
<path d="M27.8499 0.954163C40.9149 3.90806 47.9426 12.8356 47.8924 26.1329C47.8649 33.4288 47.8875 40.7249 47.8875 48.1483C44.7499 48.1483 41.7903 48.1483 38.5182 48.1483C38.5182 46.3659 38.5183 44.5975 38.5182 42.8291C38.5177 36.6177 38.5816 30.4054 38.4997 24.195C38.4065 17.1307 32.9759 11.0341 26.2163 10.2388C18.6668 9.35047 12.0683 13.6719 10.2003 20.7278C8.32959 27.7939 11.8107 34.9091 18.5422 37.7422C19.2385 38.0353 19.9782 38.2255 20.946 38.5456C20.946 33.7748 20.946 29.2602 20.946 24.6093C23.7657 24.6093 26.3946 24.6093 29.1421 24.6093C29.1421 32.4044 29.1421 40.1672 29.142 47.9302C14.9722 50.2536 3.77668 41.7945 0.920965 29.7191C-2.06008 17.1137 6.06891 4.08777 18.7493 1.38078C21.6156 0.768875 24.6729 1.05128 27.8499 0.954163Z" fill="#3063E6"/>
</svg>
